<svg width="75" height="24" xmlns="http://www.w3.org/2000/svg">
 <g id="Layer_1">
  <title>Layer 1</title>
  <g stroke="null" id="svg_18">
   <path stroke="#FFB27C" d="m15.61592,0.7114c-0.10593,0.38261 -0.95237,1.82066 -2.01265,3.6986c-0.82731,1.46532 -1.13696,2.45291 -1.69486,3.18845c-0.70714,0.9323 -1.40398,1.89111 -2.33043,3.57107c-0.76397,1.38533 -1.358,2.80789 -2.01265,3.57107c-0.54877,0.63975 -1.05929,1.0203 -1.483,1.53046c-0.63557,0.76523 -1.16522,1.65799 -1.37707,2.16815l-0.10593,0" id="svg_1" stroke-width="0" fill="none"/>
   <path stroke="#FFB27C" d="m14.23885,1.34909c0,0.12754 -0.12375,0.10959 -0.7415,1.0203c-0.76397,1.12628 -1.57167,2.18295 -2.33043,3.44353c-0.9324,1.54906 -1.81817,3.01748 -2.75415,4.33629c-0.68123,0.95986 -1.21058,1.71199 -1.69486,2.42322c-0.47488,0.69742 -0.84215,1.28051 -1.27114,1.91307c-0.52326,0.77157 -0.98446,1.36804 -1.37707,1.91307c-0.34702,0.48175 -0.42371,0.63769 -0.52964,0.89277l-0.21186,0.12754" id="svg_2" stroke-width="0" fill="none"/>
   <path stroke="null" id="svg_6" d="m-0.40321,5.47808l3.03051,-5.96784l3.21927,6.3395l3.21927,-6.3395l3.03054,5.96784l-3.21927,6.33955l3.21927,6.33955l-3.03054,5.9679l-3.21927,-6.33955l-3.21927,6.33955l-3.03051,-5.9679l3.21924,-6.33955l-3.21924,-6.33955z" stroke-width="0" fill="#5b9dff"/>
   <path stroke="null" id="svg_14" d="m12.41416,5.47808l3.03051,-5.96784l3.21927,6.3395l3.21927,-6.3395l3.03054,5.96784l-3.21927,6.33955l3.21927,6.33955l-3.03054,5.96789l-3.21927,-6.33955l-3.21927,6.33955l-3.03051,-5.96789l3.21924,-6.33955l-3.21924,-6.33955z" stroke-width="0" fill="#FFAAB8"/>
   <path stroke="null" id="svg_15" d="m25.44339,5.8607l3.03051,-5.96784l3.21927,6.3395l3.21927,-6.3395l3.03054,5.96784l-3.21927,6.33955l3.21927,6.33955l-3.03054,5.96789l-3.21927,-6.33955l-3.21927,6.33955l-3.03051,-5.96789l3.21924,-6.33955l-3.21924,-6.33955z" stroke-width="0" fill="#FFF093"/>
   <path stroke="null" id="svg_16" d="m38.15483,5.98824l3.03051,-5.96784l3.21927,6.3395l3.21927,-6.3395l3.03054,5.96784l-3.21927,6.33955l3.21927,6.33955l-3.03054,5.96789l-3.21927,-6.33955l-3.21927,6.33955l-3.03051,-5.96789l3.21924,-6.33955l-3.21924,-6.33955z" stroke-width="0" fill="#5b9dff"/>
   <path stroke="null" id="svg_17" d="m50.9722,5.8607l3.03051,-5.96784l3.21927,6.3395l3.21927,-6.3395l3.03054,5.96784l-3.21927,6.33955l3.21927,6.33955l-3.03054,5.96789l-3.21927,-6.33955l-3.21927,6.33955l-3.03051,-5.96789l3.21924,-6.33955l-3.21924,-6.33955z" stroke-width="0" fill="#D1FFB4"/>
  </g>
  <path stroke="null" id="svg_19" d="m63.65751,5.72126l2.78632,-6.08969l2.95987,6.46893l2.95987,-6.46893l2.78635,6.08969l-2.95987,6.46899l2.95987,6.46899l-2.78635,6.08975l-2.95987,-6.46899l-2.95987,6.46899l-2.78632,-6.08975l2.95985,-6.46899l-2.95985,-6.46899z" stroke-width="0" fill="#FFAAB8"/>
 </g>
</svg>